<?xml version="1.0" encoding="utf-8"?>
<!-- Generator: Adobe Illustrator 17.1.0, SVG Export Plug-In . SVG Version: 6.00 Build 0)  -->
<!DOCTYPE svg PUBLIC "-//W3C//DTD SVG 1.1//EN" "http://www.w3.org/Graphics/SVG/1.1/DTD/svg11.dtd">
<svg version="1.1" id="katman_1" xmlns="http://www.w3.org/2000/svg" xmlns:xlink="http://www.w3.org/1999/xlink" x="0px" y="0px"
	 viewBox="0 0 282.5 47" enable-background="new 0 0 282.5 47" xml:space="preserve">
<g>
	<path fill="#0A213D" d="M123.3,21c0-2.6-0.9-5.1-4.2-5.1c-2.4,0-4.5,1.1-6.1,2.2l-1.4-2.4c1.9-1.2,4.7-2.6,8-2.6
		c5,0,7.1,3.3,7.1,8.4V34h-2.9l-0.3-2.4h-0.1c-2,1.6-4.2,2.9-6.8,2.9c-3.4,0-6-2.1-6-5.8C110.7,24.2,114.6,22,123.3,21z M117.7,31.7
		c2,0,3.6-1,5.6-2.7v-5.7c-6.8,0.8-9.2,2.5-9.2,5.1C114.1,30.7,115.6,31.7,117.7,31.7z"/>
	<path fill="#0A213D" d="M133.3,13.6h3.5V26c0,3.8,1.1,5.5,3.8,5.5c2.1,0,3.6-1,5.5-3.4V13.6h3.4V34h-2.9l-0.3-3.2h-0.1
		c-1.9,2.2-3.9,3.7-6.7,3.7c-4.3,0-6.3-2.8-6.3-8V13.6z"/>
	<path fill="#0A213D" d="M157.5,16.4h-3v-2.6l3.2-0.2l0.4-5.7h2.9v5.7h5.5v2.8H161v11.3c0,2.5,0.8,3.9,3.2,3.9
		c0.7,0,1.6-0.3,2.3-0.5l0.7,2.6c-1.1,0.4-2.5,0.8-3.8,0.8c-4.4,0-5.8-2.8-5.8-6.8V16.4z"/>
	<path fill="#0A213D" d="M179,13.1c5,0,9.5,3.9,9.5,10.8c0,6.8-4.5,10.7-9.5,10.7s-9.5-3.9-9.5-10.7C169.6,17,174,13.1,179,13.1z
		 M179,31.6c3.5,0,5.9-3.2,5.9-7.8c0-4.7-2.4-7.9-5.9-7.9c-3.5,0-5.9,3.2-5.9,7.9C173.1,28.5,175.5,31.6,179,31.6z"/>
	<path fill="#0A213D" d="M193.3,30.3c1.7,1.4,3.5,2.6,6.4,2.6c3.2,0,4.8-1.8,4.8-4c0-2.5-2.6-3.6-4.9-4.5c-3.1-1.1-6.4-2.3-6.4-5.8
		c0-2.9,2.3-5.4,6.5-5.4c2.1,0,4.3,0.9,5.8,2.1l-1,1.3c-1.3-1-2.8-1.8-4.8-1.8c-3.1,0-4.5,1.8-4.5,3.7c0,2.2,2.4,3.2,4.7,4.1
		c3.2,1.2,6.6,2.2,6.6,6.2c0,3-2.4,5.7-6.8,5.7c-3,0-5.6-1.3-7.4-2.8L193.3,30.3z"/>
	<path fill="#0A213D" d="M212.1,3.8h1.8v8.7V17c2.1-2.1,4.2-3.7,7-3.7c4.2,0,6.1,2.5,6.1,7.7V34h-1.8V21.3c0-4.3-1.3-6.3-4.6-6.3
		c-2.4,0-4.1,1.3-6.6,3.8V34h-1.8V3.8z"/>
	<path fill="#0A213D" d="M242.1,13.3c4.9,0,9.1,3.9,9.1,10.6c0,6.7-4.2,10.5-9.1,10.5c-4.8,0-9-3.9-9-10.5
		C233,17.2,237.2,13.3,242.1,13.3z M242.1,32.8c4.1,0,7.1-3.6,7.1-8.9c0-5.3-3.1-9-7.1-9c-4.1,0-7.1,3.7-7.1,9
		C235,29.2,238,32.8,242.1,32.8z"/>
	<path fill="#0A213D" d="M254.7,13.8h2l3.6,13.1c0.5,1.8,1,3.6,1.4,5.4h0.2c0.5-1.8,1-3.5,1.5-5.4l3.7-13.1h2.2l3.7,13.1
		c0.5,1.8,1,3.6,1.5,5.4h0.2c0.5-1.8,1-3.5,1.4-5.4l3.6-13.1h1.9L275.7,34h-2.4l-3.5-12.5c-0.6-1.9-1-3.8-1.6-5.8H268
		c-0.5,2-1,3.9-1.6,5.8L262.9,34h-2.2L254.7,13.8z"/>
</g>
<path fill="#4381A4" d="M51.9,2C39.5,2,29.4,12.1,29.4,24.5C29.4,36.9,39.5,47,51.9,47s22.5-10.1,22.5-22.5C74.5,12.1,64.4,2,51.9,2
	z"/>
<g>
	<path fill="#0A213D" d="M39.2,0H2C0.9,0,0,1.3,0,2.8s0.9,2.8,2,2.8h29.9C34,3.3,36.5,1.4,39.2,0z"/>
	<path fill="#0A213D" d="M101.8,0.1H66.7c0.1,0,0.3,0,0.4,0C67,0,66.8,0,66.7,0h-2.1c2.8,1.5,5.3,3.4,7.5,5.7h29.8
		c1.1,0,2-1.3,2-2.8C103.8,1.4,102.9,0.1,101.8,0.1z"/>
	<path fill="#0A213D" d="M90.6,18.2c1.1,0,2-1.3,2-2.9c0-1.6-0.9-2.9-2-2.9H76.6c0.9,1.8,1.5,3.8,2,5.8H90.6z"/>
	<path fill="#0A213D" d="M84,30.7c1.1,0,2-1.3,2-2.8c0-1.5-0.9-2.8-2-2.8h-4.8c-0.1,1.9-0.3,3.8-0.8,5.6H84z"/>
	<path fill="#0A213D" d="M13.2,12.3c-1.1,0-2,1.3-2,2.9c0,1.6,0.9,2.9,2,2.9h12.1c0.5-2,1.1-3.9,2-5.8H13.2z"/>
	<path fill="#0A213D" d="M19.8,25c-1.1,0-2,1.3-2,2.8c0,1.5,0.9,2.8,2,2.8h5.5c-0.4-1.8-0.7-3.7-0.7-5.6H19.8z"/>
</g>
<path fill="#FFFFFF" d="M48.7,7.4h6l12,31.2h-6.2l-2.4-6.4H45.4l-2.5,6.4h-6.2L48.7,7.4z M51.7,15.7l-4.2,10.7h8.3L51.7,15.7z"/>
</svg>
